<?xml version="1.0" encoding="utf-8"?><!DOCTYPE svg PUBLIC "-//W3C//DTD SVG 1.1//EN" "http://www.w3.org/Graphics/SVG/1.1/DTD/svg11.dtd"><svg id="" width="16" height="16" style="width:16px;height:16px;" version="1.1" xmlns="http://www.w3.org/2000/svg" viewBox="0 0 2048 2048" enable-background="new 0 0 2048 2048" xml:space="preserve"><path fill="#D8D8D8" d="M0 1974.86 l0 -1901.72 q0 -29.71 21.71 -51.42 q21.71 -21.71 51.42 -21.71 q29.72 0 51.43 21.71 q21.72 21.71 21.72 51.42 l0 1901.72 q0 29.71 -21.72 51.42 q-21.71 21.72 -51.43 21.72 q-29.71 0 -51.42 -21.72 q-21.71 -21.71 -21.71 -51.42 ZM437.71 1024 q0 -46.86 21.71 -86.86 q21.72 -40 60.58 -66.28 l1244.57 -819.43 q46.86 -30.86 98.29 -30.86 q37.71 0 71.42 14.29 q33.72 14.28 58.86 38.86 q25.14 24.58 40 57.72 q14.86 33.14 14.86 72 l0 1641.14 q0 37.72 -14.28 70.86 q-14.29 33.14 -39.43 58.29 q-25.14 25.14 -58.29 39.43 q-33.14 14.29 -70.86 14.29 q-26.28 0 -52.57 -8.57 q-26.28 -8.57 -48 -22.29 l-1244.57 -819.43 q-38.86 -26.28 -60.58 -66.28 q-21.71 -40 -21.71 -86.86 Z"/></svg>