<?xml version="1.0" encoding="utf-8"?><!DOCTYPE svg PUBLIC "-//W3C//DTD SVG 1.1//EN" "http://www.w3.org/Graphics/SVG/1.1/DTD/svg11.dtd"><svg id="" width="16" height="16" style="width:16px;height:16px;" version="1.1" xmlns="http://www.w3.org/2000/svg" viewBox="0 0 2048 2048" enable-background="new 0 0 2048 2048" xml:space="preserve"><path fill="#D8D8D8" d="M1901.71 1974.86 l0 -1901.72 q0 -29.71 21.72 -51.42 q21.71 -21.71 51.43 -21.71 q29.71 0 51.42 21.71 q21.72 21.71 21.72 51.42 l0 1901.72 q0 29.71 -21.72 51.42 q-21.71 21.72 -51.42 21.72 q-29.72 0 -51.43 -21.72 q-21.72 -21.71 -21.72 -51.42 ZM0 1844.57 l0 -1641.14 q0 -38.86 14.86 -72 q14.86 -33.14 40 -57.72 q25.14 -24.58 58.86 -38.86 q33.72 -14.29 71.42 -14.29 q51.43 0 98.29 30.86 l1244.57 819.43 q38.86 26.28 60.57 66.28 q21.72 40 21.72 86.86 q0 46.86 -21.72 86.86 q-21.71 40 -60.57 66.28 l-1244.57 819.43 q-22.86 14.86 -48.58 22.86 q-25.72 8 -53.14 8 q-37.71 0 -70.28 -14.86 q-32.57 -14.86 -57.72 -39.43 q-25.15 -24.57 -39.43 -57.71 q-14.29 -33.14 -14.29 -70.86 Z"/></svg>